<svg width="56" height="55" viewBox="0 0 56 55" fill="none" xmlns="http://www.w3.org/2000/svg">
<circle cx="28.25" cy="27.5" r="27.5" fill="white"/>
<path d="M35.9333 37.4743L35.8173 37.2528L35.9333 37.4743C37.1828 36.82 38.158 35.6092 38.7576 33.9158L38.758 33.9146C38.8303 33.7069 38.8305 33.4808 38.7585 33.273C38.6864 33.0652 38.5464 32.8877 38.361 32.7694L38.3593 32.7683L33.2008 29.533L33.1915 29.5237L33.1707 29.51C33.1405 29.4901 33.1093 29.472 33.0771 29.4556C32.978 29.3935 32.8684 29.3496 32.7537 29.3261L32.7309 29.3215L32.7086 29.3211C32.6934 29.318 32.6782 29.3153 32.663 29.3129L32.6446 29.31L32.626 29.3098H32.6196C32.4592 29.3018 32.2992 29.3333 32.1539 29.4018L32.1519 29.4028C32.1021 29.4268 32.0544 29.455 32.0094 29.4871C31.9815 29.504 31.9545 29.5222 31.9285 29.5418L31.8971 29.5653L31.8744 29.5974C31.8712 29.602 31.868 29.6067 31.8648 29.6113C31.8395 29.6347 31.8155 29.6595 31.7928 29.6854L30.7915 30.6968C28.9137 29.705 27.4331 28.0953 26.0884 25.9166L26.989 25.0258C27.0109 25.0059 27.0319 24.985 27.052 24.9631C27.07 24.9463 27.0873 24.9287 27.104 24.9105L27.1688 24.8397L27.1688 24.8326L27.2142 24.7829L27.2144 24.7657L27.2206 24.7592L27.2385 24.7195C27.2497 24.6945 27.2599 24.6691 27.269 24.6431L27.2759 24.6235C27.2824 24.6108 27.2887 24.5979 27.2946 24.5848L27.3046 24.563L27.3103 24.5396C27.3164 24.5144 27.3215 24.489 27.3255 24.4633L27.3285 24.4448L27.3285 24.4381C27.3325 24.4168 27.3357 24.3954 27.3383 24.374L27.3399 24.3603L27.34 24.3466V24.3381C27.3407 24.316 27.3407 24.2939 27.34 24.2717V24.27C27.3407 24.2485 27.3407 24.227 27.34 24.2055C27.3401 24.1977 27.3401 24.1898 27.34 24.182L27.3397 24.1642L27.3369 24.1467C27.3345 24.1314 27.3317 24.1161 27.3285 24.1009L27.3284 24.0845L27.3204 24.0542C27.3102 24.0155 27.2977 23.9775 27.2829 23.9403L27.2828 23.9307L27.264 23.8856C27.2477 23.8463 27.2288 23.8081 27.2075 23.7712L27.1996 23.7556L27.1819 23.7205L27.163 23.7013L23.9406 18.4098C23.9405 18.4096 23.9404 18.4094 23.9402 18.4092C23.8559 18.2691 23.7377 18.1523 23.5964 18.0697C23.5059 18.0167 23.4077 17.9789 23.3059 17.9573V17.9083L23.031 17.9357C22.9594 17.9429 22.8888 17.9579 22.8205 17.9806C21.155 18.4927 19.9477 19.4071 19.2905 20.6225C18.6351 21.8344 18.5601 23.2407 18.8332 24.6415C19.3781 27.4365 21.3017 30.4109 23.7067 32.8708C26.1112 35.3303 29.0323 37.3232 31.8461 37.9067C33.2577 38.1994 34.687 38.1269 35.9333 37.4743ZM24.1641 25.075L24.1641 25.075L24.1624 25.0767C24.0116 25.2289 23.915 25.4263 23.8874 25.6388C23.8598 25.8512 23.9028 26.0668 24.0097 26.2525L24.0098 26.2527C25.7055 29.1892 27.7327 31.5055 30.5911 32.7654C30.7708 32.8451 30.9702 32.8689 31.1635 32.8335C31.3569 32.7981 31.5352 32.7051 31.675 32.5668L31.6759 32.5659L32.7057 31.536L36.6225 33.984C36.1831 34.8854 35.6364 35.4188 35.0309 35.7359C34.2793 36.1294 33.344 36.2136 32.2431 35.9853C30.033 35.527 27.3233 33.7743 25.0983 31.4984C22.8731 29.2223 21.1738 26.4752 20.7444 24.273C20.5307 23.1767 20.6309 22.2626 21.0144 21.5534C21.321 20.9864 21.8313 20.4834 22.6924 20.1009L25.1264 24.1227L24.1641 25.075ZM13.3484 42.6796L13.3484 42.6796C13.2968 42.8519 13.2937 43.035 13.3395 43.2089C13.3853 43.3828 13.4782 43.5406 13.6079 43.6651C13.7376 43.7895 13.8992 43.8759 14.0748 43.9144C14.2504 43.953 14.4333 43.9424 14.6032 43.8838L14.6033 43.8838L20.3364 41.9052C22.7868 43.3928 25.6728 44.25 28.75 44.25C37.7174 44.25 45 36.9673 45 28C45 19.0326 37.7174 11.75 28.75 11.75C19.7862 11.75 12.5 19.0324 12.5 28C12.5 31.2186 13.4422 34.2293 15.1046 36.819L13.3484 42.6796ZM20.9909 40.0094L20.8548 40.2192L20.9909 40.0094C20.8664 39.9286 20.725 39.8772 20.5776 39.8592C20.4301 39.8412 20.2805 39.8571 20.1402 39.9055L20.2218 40.1418L20.1402 39.9055L15.7678 41.4144L17.1078 36.9424L16.8683 36.8706L17.1078 36.9424C17.1496 36.803 17.1597 36.6561 17.1374 36.5124C17.1152 36.3687 17.0611 36.2317 16.9792 36.1115L16.9792 36.1115C15.363 33.7401 14.4543 30.9807 14.4543 28C14.4543 20.0947 20.8483 13.7043 28.75 13.7043C36.6555 13.7043 43.0457 20.0945 43.0457 28C43.0457 35.9055 36.6555 42.2957 28.75 42.2957C25.8837 42.2957 23.2189 41.4551 20.9909 40.0094Z" fill="#127BD7" stroke="#127BD7" stroke-width="0.5"/>
</svg>
