<svg width="94" height="94" viewBox="0 0 94 94" fill="none" xmlns="http://www.w3.org/2000/svg">
<path d="M44.901 45.52H49.0925C50.821 45.52 52.2259 44.1151 52.2259 42.3865V39.6867H54.9257C56.6543 39.6867 58.0592 38.2819 58.0592 36.5533V32.3619C58.0592 30.6333 56.6543 29.2284 54.9257 29.2284H52.2259V26.5286C52.2259 24.8 50.821 23.3951 49.0925 23.3951H44.901C43.1725 23.3951 41.7676 24.8 41.7676 26.5286V29.2284H39.0678C37.3392 29.2284 35.9343 30.6333 35.9343 32.3619V36.5533C35.9343 38.2819 37.3392 39.6867 39.0678 39.6867H41.7676V42.3865C41.7734 44.1151 43.1725 45.52 44.901 45.52ZM39.0735 37.3742C38.6226 37.3742 38.2526 37.0042 38.2526 36.5533V32.3619C38.2526 31.9109 38.6226 31.5409 39.0735 31.5409H43.265C43.7159 31.5409 44.0859 31.1709 44.0859 30.72V26.5286C44.0859 26.0776 44.4559 25.7076 44.9068 25.7076H49.0982C49.5492 25.7076 49.9192 26.0776 49.9192 26.5286V30.72C49.9192 31.1709 50.2892 31.5409 50.7401 31.5409H54.9315C55.3825 31.5409 55.7525 31.9109 55.7525 32.3619V36.5533C55.7525 37.0042 55.3825 37.3742 54.9315 37.3742H50.7401C50.2892 37.3742 49.9192 37.7442 49.9192 38.1951V42.3865C49.9192 42.8375 49.5492 43.2075 49.0982 43.2075H44.9068C44.4559 43.2075 44.0859 42.8375 44.0859 42.3865V38.1951C44.0859 37.7442 43.7159 37.3742 43.265 37.3742H39.0735Z" fill="#127BD7"/>
<path d="M63.187 69.7969H63.1873C69.0719 69.7969 73.8435 65.0253 73.8435 59.1406C73.8435 53.256 69.0719 48.4844 63.1873 48.4844C57.3026 48.4844 52.531 53.256 52.531 59.1406L52.531 59.1409C52.5369 65.0253 57.3026 69.791 63.187 69.7969ZM63.1873 51.2969C67.5181 51.2969 71.031 54.8098 71.031 59.1406C71.031 63.4715 67.5181 66.9844 63.1873 66.9844C58.8564 66.9844 55.3435 63.4715 55.3435 59.1406C55.3435 54.8098 58.8564 51.2969 63.1873 51.2969Z" fill="#FDFDFF" stroke="#FDFDFF" stroke-width="0.5"/>
<path d="M20.809 67.5938L21.0328 67.4471L20.8713 67.2338C20.4124 66.6275 20.0156 65.9871 19.6753 65.3123L19.5497 65.0632L19.3159 65.2152C13.3479 69.0944 9.75561 75.7292 9.74976 82.8435V82.8437C9.74976 83.6177 10.382 84.25 11.156 84.25C11.9299 84.25 12.5621 83.6178 12.5623 82.8439C12.568 76.6959 15.6648 70.9643 20.809 67.5938Z" fill="#FDFDFF" stroke="#FDFDFF" stroke-width="0.5"/>
<path d="M51.8747 82.8438V82.8435C51.8688 75.7293 48.2766 69.0945 42.3146 65.2096L42.0806 65.0571L41.9549 65.3065C41.6147 65.9811 41.2122 66.6274 40.7587 67.2283L40.5979 67.4413L40.821 67.5878C45.9596 70.9642 49.0565 76.6959 49.0622 82.844C49.0623 83.6179 49.6945 84.25 50.4684 84.25C51.2424 84.25 51.8747 83.6178 51.8747 82.8438Z" fill="#FDFDFF" stroke="#FDFDFF" stroke-width="0.5"/>
<path d="M30.812 70.375H30.8123C36.6969 70.375 41.4685 65.6034 41.4685 59.7188C41.4685 53.8341 36.6969 49.0625 30.8123 49.0625C24.9276 49.0625 20.156 53.8341 20.156 59.7188L20.156 59.719C20.1619 65.6034 24.9276 70.3691 30.812 70.375ZM30.8123 51.875C35.1431 51.875 38.656 55.3879 38.656 59.7188C38.656 64.0496 35.1431 67.5625 30.8123 67.5625C26.4814 67.5625 22.9685 64.0496 22.9685 59.7188C22.9685 55.3879 26.4814 51.875 30.8123 51.875Z" fill="#FDFDFF" stroke="#FDFDFF" stroke-width="0.5"/>
<path d="M84.2499 82.8438V82.8436C84.2441 75.6297 80.5523 68.9248 74.4559 65.0633L74.2322 64.9216L74.1036 65.1531C73.7348 65.8169 73.3095 66.4463 72.8334 67.0301L72.6545 67.2494L72.8942 67.3999C78.2094 70.7361 81.4317 76.5704 81.4374 82.844C81.4375 83.6179 82.0697 84.25 82.8437 84.25C83.6177 84.25 84.2499 83.6178 84.2499 82.8438Z" fill="#FDFDFF" stroke="#FDFDFF" stroke-width="0.5"/>
<path d="M47.6699 12.8183L47.6697 12.8186L47.6811 12.8263C54.6007 17.484 62.7296 20.0309 71.0678 20.1648C71.304 20.1705 71.3955 20.2063 71.4381 20.2432C71.4728 20.2733 71.5236 20.3482 71.5342 20.5907L71.5342 20.5909C71.9549 29.996 70.6694 38.8655 67.1148 47.0274L67.0069 47.275L67.2621 47.3634C67.9816 47.6127 68.679 47.9301 69.3429 48.3046L69.5838 48.4405L69.6947 48.1872C73.2788 40.0024 74.8096 30.8425 74.3465 20.4704C74.3494 18.7574 72.9679 17.3586 71.2472 17.3523H71.2463H71.1213C63.32 17.214 55.7199 14.83 49.2397 10.4818C48.5828 10.0219 47.8078 9.763 47.0065 9.75008L47.0065 9.74995L46.9984 9.75008C46.1971 9.763 45.4222 10.0219 44.7652 10.4818C38.285 14.83 30.6849 17.214 22.8836 17.3523L22.7586 17.3523L22.7577 17.3523C21.0371 17.3586 19.6555 18.7574 19.6585 20.4704C19.1954 30.8425 20.7262 40.0024 24.3102 48.1872L24.4212 48.4405L24.6621 48.3046C25.3259 47.9301 26.0233 47.6127 26.7428 47.3634L26.998 47.275L26.8902 47.0274C23.3355 38.8655 22.05 29.996 22.4707 20.5909L22.4707 20.5907C22.4814 20.3482 22.5322 20.2733 22.5669 20.2432C22.6094 20.2063 22.701 20.1705 22.9371 20.1648C31.2753 20.0309 39.4042 17.484 46.3238 12.8263L46.3241 12.8266L46.335 12.8183C46.5302 12.6707 46.7603 12.5806 47.0025 12.5632C47.2447 12.5806 47.4747 12.6707 47.6699 12.8183Z" fill="#FDFDFF" stroke="#FDFDFF" stroke-width="0.5"/>
<path d="M52.2717 65.1546L52.1432 64.9195L51.9176 65.064C50.6482 65.8771 49.4725 66.8189 48.4021 67.8776L48.2387 68.0392L48.386 68.2155C48.8776 68.8043 49.3411 69.4223 49.7764 70.0581L49.9485 70.3095L50.1615 70.0916C51.1598 69.0706 52.2778 68.1636 53.4868 67.3995L53.728 67.247L53.5451 67.0279C53.0587 66.4454 52.6342 65.8172 52.2717 65.1546Z" fill="#FDFDFF" stroke="#FDFDFF" stroke-width="0.5"/>
</svg>
