<svg width="56" height="55" viewBox="0 0 56 55" fill="none" xmlns="http://www.w3.org/2000/svg">
<circle cx="28.25" cy="27.5" r="27.5" fill="white"/>
<path d="M38.5967 14H18.9033C17.8027 14.0031 16.7481 14.4416 15.9699 15.2199C15.1916 15.9981 14.7531 17.0527 14.75 18.1533V37.8467C14.7531 38.9473 15.1916 40.0019 15.9699 40.7801C16.7481 41.5583 17.8027 41.9969 18.9033 42H38.5967C39.6973 41.9969 40.7519 41.5583 41.5301 40.7801C42.3083 40.0019 42.7469 38.9473 42.75 37.8467V18.1533C42.7469 17.0527 42.3083 15.9981 41.5301 15.2199C40.7519 14.4416 39.6973 14.0031 38.5967 14ZM40.4167 37.8467C40.4167 38.3294 40.2249 38.7923 39.8836 39.1336C39.5423 39.4749 39.0794 39.6667 38.5967 39.6667H18.9033C18.4206 39.6667 17.9577 39.4749 17.6164 39.1336C17.2751 38.7923 17.0833 38.3294 17.0833 37.8467V18.1533C17.0833 17.6706 17.2751 17.2077 17.6164 16.8664C17.9577 16.5251 18.4206 16.3333 18.9033 16.3333H38.5967C39.0794 16.3333 39.5423 16.5251 39.8836 16.8664C40.2249 17.2077 40.4167 17.6706 40.4167 18.1533V37.8467Z" fill="#1F12D7"/>
<path d="M28.75 21C27.3655 21 26.0122 21.4105 24.861 22.1797C23.7099 22.9489 22.8127 24.0421 22.2828 25.3212C21.753 26.6003 21.6144 28.0078 21.8845 29.3656C22.1546 30.7235 22.8213 31.9708 23.8003 32.9497C24.7792 33.9287 26.0265 34.5954 27.3844 34.8655C28.7422 35.1356 30.1497 34.997 31.4288 34.4672C32.7079 33.9373 33.8011 33.0401 34.5703 31.889C35.3395 30.7378 35.75 29.3845 35.75 28C35.75 26.1435 35.0125 24.363 33.6997 23.0503C32.387 21.7375 30.6065 21 28.75 21ZM28.75 32.6667C27.827 32.6667 26.9248 32.393 26.1573 31.8802C25.3899 31.3674 24.7918 30.6386 24.4386 29.7859C24.0854 28.9331 23.9929 27.9948 24.173 27.0896C24.3531 26.1843 24.7975 25.3528 25.4502 24.7002C26.1028 24.0475 26.9343 23.6031 27.8396 23.423C28.7448 23.2429 29.6831 23.3354 30.5359 23.6886C31.3886 24.0418 32.1174 24.6399 32.6302 25.4073C33.143 26.1748 33.4167 27.077 33.4167 28C33.4167 29.2377 32.925 30.4247 32.0498 31.2998C31.1747 32.175 29.9877 32.6667 28.75 32.6667Z" fill="#1F12D7"/>
<path d="M36.3333 22.1667C37.2998 22.1667 38.0833 21.3832 38.0833 20.4167C38.0833 19.4502 37.2998 18.6667 36.3333 18.6667C35.3668 18.6667 34.5833 19.4502 34.5833 20.4167C34.5833 21.3832 35.3668 22.1667 36.3333 22.1667Z" fill="#1F12D7"/>
</svg>
