<svg width="34" height="43" viewBox="0 0 34 43" fill="none" xmlns="http://www.w3.org/2000/svg">
<path d="M30.0484 21.5547L23.2484 18.9747C22.9363 18.857 22.5851 18.9334 22.3488 19.1718L20.2972 21.2475C17.4467 19.2279 14.9959 16.7483 12.9995 13.8639L15.0507 11.7882C15.2863 11.5498 15.3625 11.1937 15.2455 10.878L12.6955 3.99796C12.5714 3.66221 12.2542 3.43999 11.8999 3.43999H11.4246C9.31182 3.43999 7.3252 4.27247 5.83124 5.784C4.26316 7.37019 3.3999 9.47925 3.3999 11.7221C3.3999 13.2072 3.7909 14.6706 4.53074 15.9533C7.83316 21.6809 12.5707 26.4746 18.2317 29.8158C19.5003 30.5644 20.9463 30.96 22.4141 30.96C24.6312 30.96 26.7154 30.0862 28.2831 28.5004C29.7771 26.9889 30.5999 24.9792 30.5999 22.8409V22.36C30.5999 22.0015 30.3803 21.6806 30.0484 21.5547ZM27.0809 27.284C25.8341 28.5455 24.177 29.24 22.4141 29.24C21.2468 29.24 20.097 28.9252 19.0885 28.3301C13.6805 25.1385 9.15406 20.5588 5.99886 15.0868C5.41066 14.0665 5.0999 12.9031 5.0999 11.7221C5.0999 9.93849 5.7867 8.26149 7.03314 7.00004C8.17962 5.84008 9.695 5.18957 11.3114 5.16068L13.4619 10.9633L11.2991 13.1518C11.0125 13.4414 10.968 13.8959 11.1927 14.2368C13.5115 17.7559 16.4508 20.7298 19.9283 23.0752C20.2656 23.3029 20.7147 23.2575 21.0007 22.9675L23.1638 20.7793L28.8985 22.9551C28.8703 24.5912 28.227 26.1244 27.0809 27.284Z" fill="#127BD7"/>
</svg>
